<svg width="291" height="109" viewBox="0 0 291 109" fill="none" xmlns="http://www.w3.org/2000/svg">
<g filter="url(#filter0_d_35_207)">
<path d="M157.572 11.3912H92.803V16.6769H157.572V11.3912ZM167.49 101H82.6893V95.7143H167.49V101ZM157.572 89.7868H92.803V84.5011H157.572V89.7868ZM136.824 21.4804V53.2208L129.438 46.6553L128.176 45.5351V21.4804H122.224V45.5351L120.961 46.6553L113.576 53.2208V21.4804H107.624V66.2181L113.576 60.9324L122.224 53.243L125.298 50.513L128.372 53.243L137.023 60.9324L142.972 66.2181V21.4804H136.824ZM136.824 64.9421V79.2154H142.776V70.4021L136.824 64.9421ZM122.199 57.2305V79.1931H128.151V57.2305L125.077 54.5005L122.199 57.2305ZM113.376 79.0373V64.764L107.428 70.0498V78.863H113.376V79.0373ZM98.7513 73.9074V26.7662L92.803 21.4804V79.1931L98.7513 73.9074ZM151.423 50.3349V26.7662L157.376 21.4804H157.547V79.1931H157.376L151.423 73.9074V50.3349ZM88.6375 11.3912C88.6375 14.4291 87.2005 17.3149 84.847 19.407C82.4893 21.499 79.4402 22.7787 75.8204 22.7787C72.2048 22.7787 69.1557 21.499 66.7981 19.407C64.4446 17.3149 63.0325 14.4291 63.0325 11.3912C63.0325 8.34959 64.4696 5.46377 66.8231 3.37174C69.1557 1.2797 72.2298 0 75.8454 0H174.179C177.603 0 180.848 1.2797 183.202 3.37174C185.559 5.46377 186.996 8.17525 186.996 11.3912C186.996 14.6071 185.559 17.3149 183.202 19.407C180.848 21.499 177.799 22.7787 174.179 22.7787C170.56 22.7787 167.515 21.499 165.157 19.407C162.803 17.3149 161.537 14.4291 161.537 11.3912H167.49C167.49 13.1531 168.206 14.6071 169.472 15.553C170.734 16.6769 172.346 17.3149 174.154 17.3149C175.966 17.3149 177.578 16.6769 178.84 15.553C180.107 14.4291 180.823 12.9973 180.823 11.3912C180.823 9.78137 180.107 8.34959 178.84 7.22568C177.578 6.10177 175.966 5.46377 174.154 5.46377H75.8454C73.8627 5.46377 72.2298 6.10177 71.1635 7.22568C69.8972 8.34959 69.1807 9.78137 69.1807 11.3912C69.1807 13.1531 69.8972 14.6071 71.1635 15.553C72.4256 16.6769 74.0376 17.3149 75.8454 17.3149C77.6574 17.3149 79.2694 16.6769 80.5316 15.553C81.7979 14.4291 82.5143 12.9973 82.5143 11.3912H88.6375Z" fill="#1E293B"/>
</g>
<path d="M0.95 73.898V67.898C2.28333 67.898 3.25 67.648 3.85 67.148C4.45 66.648 4.75 65.7146 4.75 64.348V36.398H11.6L11.65 64.648C11.65 68.2813 10.8333 70.7313 9.2 71.998C7.6 73.2646 4.85 73.898 0.95 73.898ZM25.3879 59.048C25.3879 63.0146 27.4046 64.998 31.4379 64.998C35.4712 64.998 37.4879 63.0146 37.4879 59.048V36.398H44.3879V58.898C44.3879 63.0646 43.3046 66.1313 41.1379 68.098C39.0046 70.0313 35.7712 70.998 31.4379 70.998C27.1046 70.998 23.8546 70.0313 21.6879 68.098C19.5546 66.1313 18.4879 63.0646 18.4879 58.898V36.398H25.3879V59.048ZM62.9527 70.398H51.5027V36.398H62.9527C65.8861 36.398 68.3027 36.7146 70.2027 37.348C72.1027 37.948 73.5694 38.9646 74.6027 40.398C75.6694 41.798 76.4027 43.4646 76.8027 45.398C77.2027 47.298 77.4027 49.7813 77.4027 52.848C77.4027 55.9146 77.2194 58.4646 76.8527 60.498C76.4861 62.498 75.7861 64.298 74.7527 65.898C73.7527 67.4646 72.2861 68.6146 70.3527 69.348C68.4194 70.048 65.9527 70.398 62.9527 70.398ZM70.2027 56.898C70.2694 55.8313 70.3027 54.3646 70.3027 52.498C70.3027 50.598 70.2361 49.0813 70.1027 47.948C69.9694 46.8146 69.6527 45.7813 69.1527 44.848C68.6527 43.9146 67.9027 43.2813 66.9027 42.948C65.9361 42.5813 64.6194 42.398 62.9527 42.398H58.4027V64.398H62.9527C65.4527 64.398 67.2694 63.7646 68.4027 62.498C69.3694 61.4646 69.9694 59.598 70.2027 56.898Z" fill="#1E293B"/>
<path d="M190.185 69.848C186.652 70.6146 183.468 70.998 180.635 70.998C177.802 70.998 175.535 70.648 173.835 69.948C172.135 69.248 170.802 68.1313 169.835 66.598C168.868 65.0646 168.202 63.2646 167.835 61.198C167.468 59.1313 167.285 56.5313 167.285 53.398C167.285 46.8313 168.202 42.2646 170.035 39.698C171.902 37.098 175.318 35.798 180.285 35.798C183.152 35.798 186.468 36.248 190.235 37.148L190.035 42.648C186.735 42.148 183.985 41.898 181.785 41.898C179.618 41.898 178.068 42.198 177.135 42.798C176.202 43.3646 175.502 44.4646 175.035 46.098C174.602 47.7313 174.385 50.5146 174.385 54.448C174.385 58.3813 174.835 61.1146 175.735 62.648C176.668 64.148 178.502 64.898 181.235 64.898C184.002 64.898 186.935 64.6646 190.035 64.198L190.185 69.848ZM195.783 70.398V36.398H202.683V70.398H195.783Z" fill="#1E293B"/>
<path d="M230.919 70.398L238.569 36.398H251.669L259.319 70.398H252.419L251.069 64.248H239.169L237.819 70.398H230.919ZM243.919 42.098L240.469 58.248H249.769L246.319 42.098H243.919ZM262.947 70.398V62.098H270.147V70.398H262.947ZM276.64 70.398V36.398H283.54V70.398H276.64Z" fill="#1E293B"/>
<defs>
<filter id="filter0_d_35_207" x="59.0325" y="0" width="131.964" height="109" filterUnits="userSpaceOnUse" color-interpolation-filters="sRGB">
<feFlood flood-opacity="0" result="BackgroundImageFix"/>
<feColorMatrix in="SourceAlpha" type="matrix" values="0 0 0 0 0 0 0 0 0 0 0 0 0 0 0 0 0 0 127 0" result="hardAlpha"/>
<feOffset dy="4"/>
<feGaussianBlur stdDeviation="2"/>
<feComposite in2="hardAlpha" operator="out"/>
<feColorMatrix type="matrix" values="0 0 0 0 0 0 0 0 0 0 0 0 0 0 0 0 0 0 0.25 0"/>
<feBlend mode="normal" in2="BackgroundImageFix" result="effect1_dropShadow_35_207"/>
<feBlend mode="normal" in="SourceGraphic" in2="effect1_dropShadow_35_207" result="shape"/>
</filter>
</defs>
</svg>
